<svg width="24" height="24" viewBox="0 0 24 24" fill="none" xmlns="http://www.w3.org/2000/svg">
	<g clip-path="url(#clip0_2_406)">
		<path d="M19.4251 13.909L18.0462 15.2879C17.7533 15.5808 17.2787 15.5811 16.9856 15.2879C16.6924 14.9948 16.6927 14.5201 16.9856 14.2273L18.3645 12.8484C20.3529 10.8599 20.3527 7.6243 18.3645 5.63609C16.3762 3.64787 13.1407 3.64761 11.1522 5.63609L9.77327 7.01499C9.4804 7.30787 9.00574 7.30813 8.71261 7.01499C8.41948 6.72186 8.41974 6.24721 8.71261 5.95433L10.0915 4.57542C12.6647 2.00224 16.8517 2.00198 19.4251 4.57542C21.9986 7.14887 21.9983 11.3358 19.4251 13.909Z" fill="currentColor" />
		<path d="M15.2882 18.0459L13.9092 19.4248C11.3361 21.998 7.14909 21.9983 4.57565 19.4248C2.0022 16.8514 2.00246 12.6644 4.57565 10.0912L5.95456 8.71232C6.24743 8.41944 6.72208 8.41918 7.01522 8.71232C7.30835 9.00545 7.30809 9.4801 7.01522 9.77298L5.63631 11.1519C3.64783 13.1404 3.64809 16.3759 5.63631 18.3642C7.62453 20.3524 10.8601 20.3526 12.8486 18.3642L14.2275 16.9853C14.5204 16.6924 14.995 16.6921 15.2882 16.9853C15.5813 17.2784 15.581 17.753 15.2882 18.0459Z" fill="currentColor" />
		<path d="M13.8389 8.32305L8.32351 13.8385C7.81583 14.3462 7.8158 15.1693 8.32351 15.677C8.83118 16.1846 9.65431 16.1846 10.162 15.677L15.6774 10.1615C16.1851 9.65385 16.1851 8.83073 15.6774 8.32305C15.1697 7.81535 14.3466 7.81538 13.8389 8.32305Z" fill="currentColor" />
	</g>
	<defs>
		<clipPath id="clip0_2_406">
		<rect width="24" height="24" fill="white"/>
		</clipPath>
	</defs>
</svg>
