<svg width="24" height="24" viewBox="0 0 24 24" fill="none" xmlns="http://www.w3.org/2000/svg">
<path d="M18.8891 9.55409C18.8891 17.5731 20.0434 21.1979 12.2796 21.1979C4.51484 21.1979 5.69294 17.5731 5.69294 9.55409" stroke="currentColor"  stroke-width="1.5" stroke-linecap="round" stroke-linejoin="round"/>
<path fill-rule="evenodd" clip-rule="evenodd" d="M12.4996 2.25C11.4056 2.25 10.5552 2.45439 9.90386 2.81083C9.24451 3.17168 8.83055 3.66616 8.58371 4.17006C8.34172 4.66404 8.26899 5.14776 8.25354 5.49822C8.24984 5.58211 8.24936 5.65976 8.25084 5.72981H4.21466C3.80045 5.72981 3.46466 6.06559 3.46466 6.47981C3.46466 6.89402 3.80045 7.22981 4.21466 7.22981H20.3651C20.7794 7.22981 21.1151 6.89402 21.1151 6.47981C21.1151 6.06559 20.7794 5.72981 20.3651 5.72981H16.7493C16.7508 5.65975 16.7503 5.58208 16.7466 5.49818C16.7311 5.1477 16.6583 4.66396 16.4163 4.16997C16.1693 3.66606 15.7553 3.17161 15.0958 2.81079C14.4444 2.45438 13.5938 2.25 12.4996 2.25ZM15.2487 5.72981C15.2504 5.68315 15.2508 5.62722 15.248 5.56432C15.2387 5.3523 15.1947 5.08604 15.0693 4.83003C14.9487 4.58394 14.7444 4.32839 14.3758 4.12671C13.9991 3.92062 13.4119 3.75 12.4996 3.75C11.5876 3.75 11.0005 3.92061 10.624 4.12667C10.2555 4.32832 10.0513 4.58384 9.93076 4.82994C9.80535 5.08596 9.76143 5.35224 9.75208 5.56428C9.74931 5.6272 9.74968 5.68314 9.75143 5.72981H15.2487Z" fill="currentColor" />
</svg>
